<?xml version="1.0" encoding="iso-8859-1"?>
<!-- Generator: Adobe Illustrator 19.0.0, SVG Export Plug-In . SVG Version: 6.00 Build 0)  -->
<svg version="1.1" id="Capa_1" xmlns="http://www.w3.org/2000/svg" xmlns:xlink="http://www.w3.org/1999/xlink" x="0px" y="0px"
	 viewBox="0 0 512 512" style="enable-background:new 0 0 512 512;" xml:space="preserve">
<g>
	<g>
		<path d="M306.04,286.012c-8.284,0-15.024,6.74-15.024,15.024s6.74,15.023,15.024,15.023s15.024-6.739,15.024-15.023
			S314.324,286.012,306.04,286.012z" fill="white"/>
	</g>
</g>
<g>
	<g>
		<path d="M185.944,286.012c-8.284,0-15.024,6.74-15.024,15.024s6.74,15.023,15.024,15.023s15.024-6.739,15.024-15.023
			S194.228,286.012,185.944,286.012z" fill="white"/>
	</g>
</g>
<g>
	<g>
		<path d="M429.213,0H306.454l-4.062,8.586C293.944,26.444,275.734,37.984,256,37.984s-37.944-11.54-46.393-29.398L205.545,0H82.787
			C37.138,0,0,37.138,0,82.787V222h66.492v290h379.016V222H512V82.787C512,37.138,474.862,0,429.213,0z M351.065,301.036
			c0,24.826-20.198,45.023-45.024,45.023s-45.024-20.197-45.024-45.023c0-24.826,20.198-45.024,45.024-45.024
			c5.267,0,10.323,0.917,15.024,2.587V195.94h-90.097v105.096c0,24.826-20.198,45.023-45.024,45.023
			c-24.826,0-45.024-20.197-45.024-45.023c0-24.826,20.198-45.024,45.024-45.024c5.267,0,10.322,0.917,15.024,2.587V165.94h150.097
			V301.036z" fill="white"/>
	</g>
</g>
</svg>
