<?xml version="1.0" encoding="UTF-8" standalone="no"?>
<!-- Created with Inkscape (http://www.inkscape.org/) -->

<svg
   xmlns:dc="http://purl.org/dc/elements/1.1/"
   xmlns:cc="http://creativecommons.org/ns#"
   xmlns:rdf="http://www.w3.org/1999/02/22-rdf-syntax-ns#"
   xmlns:svg="http://www.w3.org/2000/svg"
   xmlns="http://www.w3.org/2000/svg"
   xmlns:sodipodi="http://sodipodi.sourceforge.net/DTD/sodipodi-0.dtd"
   xmlns:inkscape="http://www.inkscape.org/namespaces/inkscape"
   width="93.8116mm"
   height="93.51017mm"
   viewBox="0 0 93.811604 93.51017"
   version="1.1"
   id="svg8"
   inkscape:version="0.92.3 (2405546, 2018-03-11)"
   sodipodi:docname="drawingasdf.svg">
  <defs
     id="defs2">
    <clipPath
       clipPathUnits="userSpaceOnUse"
       id="clipPath910">
      <rect
         style="fill:none;stroke:#000000;stroke-width:0.99999994;stroke-opacity:1"
         id="rect912"
         width="545.48236"
         height="380.82751"
         x="28.211121"
         y="-19.322027" />
    </clipPath>
    <clipPath
       clipPathUnits="userSpaceOnUse"
       id="clipPath916">
      <rect
         style="fill:none;stroke:#000000;stroke-width:0.99999994;stroke-opacity:1"
         id="rect918"
         width="355.5737"
         height="542.4519"
         x="78.437897"
         y="-33.464153" />
    </clipPath>
    <clipPath
       clipPathUnits="userSpaceOnUse"
       id="clipPath922">
      <rect
         style="fill:none;stroke:#000000;stroke-width:0.99999994;stroke-opacity:1"
         id="rect924"
         width="354.56354"
         height="369.71582"
         x="78.437897"
         y="-16.291557" />
    </clipPath>
  </defs>
  <sodipodi:namedview
     id="base"
     pagecolor="#ffffff"
     bordercolor="#666666"
     borderopacity="1.0"
     inkscape:pageopacity="0.0"
     inkscape:pageshadow="2"
     inkscape:zoom="0.98994949"
     inkscape:cx="265.58949"
     inkscape:cy="83.087941"
     inkscape:document-units="mm"
     inkscape:current-layer="layer1"
     showgrid="false"
     fit-margin-top="0"
     fit-margin-left="0"
     fit-margin-right="0"
     fit-margin-bottom="0"
     inkscape:window-width="1920"
     inkscape:window-height="1017"
     inkscape:window-x="-8"
     inkscape:window-y="-8"
     inkscape:window-maximized="1" />
  <metadata
     id="metadata5">
    <rdf:RDF>
      <cc:Work
         rdf:about="">
        <dc:format>image/svg+xml</dc:format>
        <dc:type
           rdf:resource="http://purl.org/dc/dcmitype/StillImage" />
        <dc:title></dc:title>
      </cc:Work>
    </rdf:RDF>
  </metadata>
  <g
     inkscape:label="Layer 1"
     inkscape:groupmode="layer"
     id="layer1"
     transform="translate(-43.50674,-29.491995)">
    <g
       id="g903"
       transform="matrix(0.26458333,0,0,0.26458333,22.75338,29.491995)"
       clip-path="url(#clipPath922)">
      <g
         id="g819">
	<g
   id="g817">
		<path
   id="path815"
   d="M 256,0 C 162.243,0 80,82.243 80,176 c 0,93.518 81.798,176 176,176 95.079,0 176,-83.418 176,-176 C 432,82.243 349.757,0 256,0 Z m 0,332 C 224.615,332 192.888,321.212 166.115,301.541 168.424,253.907 207.718,216 256,216 c 48.261,0 87.576,37.889 89.885,85.541 C 319.113,321.212 287.385,332 256,332 Z M 206,146 c 0,-27.57 22.43,-50 50,-50 27.57,0 50,22.43 50,50 0,27.57 -22.43,50 -50,50 -27.57,0 -50,-22.43 -50,-50 z M 364.18,285.946 C 357.174,247.701 330.387,216.845 295.935,203.442 314.089,190.782 326,169.761 326,146 c 0,-38.598 -31.402,-70 -70,-70 -38.598,0 -70,31.402 -70,70 0,23.761 11.911,44.782 30.065,57.442 -34.398,13.382 -61.227,44.193 -68.245,82.504 C 117.603,256.192 100,216.277 100,176 100,92.897 172.897,20 256,20 c 83.103,0 156,72.897 156,156 0,40.277 -17.603,80.193 -47.82,109.946 z"
   inkscape:connector-curvature="0" />

	</g>

</g>
      <g
         id="g825">
	<g
   id="g823">
		<path
   id="path821"
   d="m 322.57,431.83 c -1.177,-3.62 -4.306,-6.258 -8.072,-6.806 l -34.227,-4.974 -15.304,-31.015 c -1.685,-3.414 -5.161,-5.575 -8.968,-5.575 -3.807,0 -7.283,2.161 -8.968,5.575 l -15.304,31.015 -34.227,4.974 c -3.767,0.547 -6.896,3.186 -8.072,6.806 -1.176,3.62 -0.195,7.594 2.53,10.251 l 24.765,24.14 -5.85,34.088 c -0.645,3.751 0.897,7.543 3.977,9.781 3.082,2.238 7.164,2.533 10.532,0.762 L 256,494.757 l 30.616,16.094 c 3.416,1.795 7.494,1.445 10.532,-0.762 3.079,-2.238 4.621,-6.03 3.977,-9.781 l -5.85,-34.088 24.765,-24.14 c 2.726,-2.656 3.706,-6.63 2.53,-10.25 z m -45.02,23.739 c -2.356,2.297 -3.433,5.608 -2.875,8.852 l 3.312,19.298 -17.333,-9.111 c -1.457,-0.766 -3.055,-1.148 -4.653,-1.148 -1.598,0 -3.196,0.383 -4.653,1.148 l -17.333,9.111 3.312,-19.298 c 0.558,-3.244 -0.519,-6.555 -2.875,-8.852 l -14.021,-13.667 19.379,-2.816 c 3.257,-0.473 6.073,-2.52 7.529,-5.471 L 256,416.06 l 8.662,17.555 c 1.456,2.952 4.272,4.998 7.529,5.471 l 19.379,2.816 z"
   inkscape:connector-curvature="0" />

	</g>

</g>
      <g
         id="g831">
	<g
   id="g829">
		<path
   id="path827"
   d="m 162.57,431.83 c -1.177,-3.62 -4.306,-6.258 -8.072,-6.806 l -34.227,-4.974 -15.304,-31.015 c -1.685,-3.414 -5.161,-5.575 -8.968,-5.575 -3.807,0 -7.283,2.161 -8.968,5.575 l -15.302,31.015 -34.227,4.974 c -3.767,0.547 -6.896,3.186 -8.072,6.806 -1.176,3.62 -0.195,7.594 2.53,10.251 l 24.765,24.14 -5.85,34.088 c -0.645,3.751 0.897,7.543 3.977,9.781 3.081,2.238 7.164,2.533 10.532,0.762 L 96,494.757 l 30.616,16.094 c 3.416,1.795 7.494,1.445 10.532,-0.762 3.079,-2.238 4.621,-6.03 3.977,-9.781 l -5.85,-34.088 24.765,-24.14 c 2.726,-2.656 3.706,-6.63 2.53,-10.25 z m -45.02,23.739 c -2.356,2.297 -3.433,5.608 -2.875,8.852 l 3.312,19.298 -17.333,-9.111 c -1.457,-0.766 -3.055,-1.148 -4.653,-1.148 -1.598,0 -3.196,0.383 -4.653,1.148 l -17.333,9.111 3.312,-19.298 c 0.558,-3.244 -0.519,-6.555 -2.875,-8.852 L 60.43,441.902 79.809,439.086 c 3.257,-0.473 6.073,-2.52 7.529,-5.471 L 96,416.06 l 8.662,17.555 c 1.456,2.952 4.272,4.998 7.529,5.471 l 19.379,2.816 z"
   inkscape:connector-curvature="0" />

	</g>

</g>
      <g
         id="g837">
	<g
   id="g835">
		<path
   id="path833"
   d="m 482.57,431.83 c -1.177,-3.62 -4.306,-6.258 -8.072,-6.806 l -34.227,-4.974 -15.304,-31.015 c -1.685,-3.414 -5.161,-5.575 -8.968,-5.575 -3.807,0 -7.283,2.161 -8.968,5.575 l -15.304,31.015 -34.227,4.974 c -3.767,0.547 -6.896,3.186 -8.072,6.806 -1.176,3.62 -0.195,7.594 2.53,10.251 l 24.765,24.14 -5.85,34.088 c -0.645,3.751 0.897,7.543 3.977,9.781 3.082,2.238 7.164,2.533 10.532,0.762 L 416,494.757 l 30.616,16.094 c 3.416,1.795 7.494,1.445 10.532,-0.762 3.079,-2.238 4.621,-6.03 3.977,-9.781 l -5.85,-34.088 24.765,-24.14 c 2.726,-2.656 3.706,-6.63 2.53,-10.25 z m -45.02,23.739 c -2.356,2.297 -3.433,5.608 -2.875,8.852 l 3.312,19.298 -17.333,-9.111 c -1.457,-0.766 -3.055,-1.148 -4.653,-1.148 -1.598,0 -3.196,0.383 -4.653,1.148 l -17.333,9.111 3.312,-19.298 c 0.558,-3.244 -0.519,-6.555 -2.875,-8.852 l -14.021,-13.667 19.379,-2.816 c 3.257,-0.473 6.073,-2.52 7.529,-5.471 L 416,416.06 l 8.662,17.555 c 1.456,2.952 4.272,4.998 7.529,5.471 l 19.379,2.816 z"
   inkscape:connector-curvature="0" />

	</g>

</g>
      <g
         id="g839">
</g>
      <g
         id="g841">
</g>
      <g
         id="g843">
</g>
      <g
         id="g845">
</g>
      <g
         id="g847">
</g>
      <g
         id="g849">
</g>
      <g
         id="g851">
</g>
      <g
         id="g853">
</g>
      <g
         id="g855">
</g>
      <g
         id="g857">
</g>
      <g
         id="g859">
</g>
      <g
         id="g861">
</g>
      <g
         id="g863">
</g>
      <g
         id="g865">
</g>
      <g
         id="g867">
</g>
    </g>
  </g>
</svg>
